<?xml version="1.0" encoding="utf-8"?>
<!-- Uploaded to: SVG Repo, www.svgrepo.com, Generator: SVG Repo Mixer Tools -->
<!DOCTYPE svg PUBLIC "-//W3C//DTD SVG 1.1//EN" "http://www.w3.org/Graphics/SVG/1.1/DTD/svg11.dtd">
<svg fill="#000000" width="800px" height="800px" viewBox="0 0 1000 1000" version="1.1" xmlns="http://www.w3.org/2000/svg" xmlns:xlink="http://www.w3.org/1999/xlink"  enable-background="new 0 0 1000 1000" xml:space="preserve">

<g>
<g transform="translate(0.000000,511.000000) scale(0.100000,-0.100000)">
<path d="M3901.3,4981.6c-345.5-94.4-628.7-379.6-719.1-723.1c-26.1-100.4-30.1-303.3-30.1-1289.5V1798h-321.4h-321.4v-160.7v-160.7h2410.3h2410.3v160.7V1798h-321.4h-321.4v1171c0,1285.5,0,1291.5-122.5,1522.5c-76.3,142.6-273.2,335.4-415.8,407.7c-214.9,108.5-257.1,112.5-1239.3,110.5C4198.6,5009.7,3983.7,5003.6,3901.3,4981.6z M6012.3,4632.1c126.5-62.3,233-168.7,295.2-295.3l48.2-98.4l6-1219.2l6-1221.2H4919.7H3473.5v1181c0,783.3,8,1205.1,22.1,1259.4c52.2,190.8,218.9,363.6,407.7,423.8c64.3,20.1,301.3,26.1,1046.5,22.1l964.1-4L6012.3,4632.1z"/>
<path d="M4759,4208.3v-160.7h-401.7h-401.7v-160.7v-160.7h401.7H4759v-642.7v-642.7h160.7h160.7v642.7v642.7h401.7h401.7v160.7v160.7h-401.7h-401.7v160.7v160.7h-160.7H4759V4208.3z"/>
<path d="M1063.3,1155.3V994.6H902.6H741.9V-130.2V-1255h160.7h160.7v-160.7v-160.7H1706h642.7v160.7v160.7h160.7h160.7v642.7V30.5h-482H1706v-160.7v-160.7h321.4h321.4v-321.4v-321.4H2188h-160.7v-160.7V-1255H1706h-321.4v160.7v160.7h-160.7h-160.7v803.4v803.4h160.7h160.7v160.7v160.7H1706h321.4V833.9V673.2h321.4h321.4v160.7v160.7h-160.7h-160.7v160.7V1316H1706h-642.7V1155.3z"/>
<path d="M3312.8,1155.3V994.6h-80.3h-80.3V833.9V673.2h-80.3h-80.3V-451.6v-1124.8h160.7h160.7v482.1v482.1h642.7h642.7v-482.1v-482.1H4759h160.7v1124.8V673.2h-80.3H4759v160.7v160.7h-80.3h-80.3v160.7V1316h-642.7h-642.7V1155.3z M4276.9,833.9V673.2h80.3h80.3V512.5V351.9h80.3h80.3V30.5v-321.4h-642.7h-642.7V30.5v321.4h80.3h80.3v160.7v160.7h80.3h80.3v160.7v160.7h321.4h321.4V833.9z"/>
<path d="M5241-130.2v-1446.2h160.7h160.7v1285.5c0,725.1,8,1285.5,18.1,1285.5s88.4-287.2,176.7-636.7l158.7-638.7l204.9-6l202.9-6l20.1,76.3C6369.8-122.2,6647,982.5,6647,990.6c0,2,10,4,20.1,4c14.1,0,20.1-441.9,20.1-1285.5v-1285.5h160.7h160.7v1446.2V1318l-305.3-6l-305.3-6l-130.6-526.2c-72.3-291.2-136.6-528.2-144.6-528.2c-6,0-64.3,210.9-126.5,468c-64.3,255.1-124.5,496.1-136.6,532.3l-20.1,64.3h-299.3H5241V-130.2z"/>
<path d="M7329.9-130.2v-1446.2h883.7h883.8v160.7v160.7h-723.1h-723.1v482.1v482.1H8294h642.7v160.7V30.5H8294h-642.7v482.1v482h723.1h723.1v160.7V1316h-883.8h-883.7V-130.2z"/>
<path d="M1063.3-2058.4v-160.7H902.6H741.9v-1124.8v-1124.8h160.7h160.7v-160.7V-4790H1706h642.7v160.7v160.7h160.7h160.7v1124.8v1124.8h-160.7h-160.7v160.7v160.7H1706h-642.7V-2058.4z M2027.4-2379.7v-160.7H2188h160.7v-803.4v-803.4H2188h-160.7v-160.7v-160.7H1706h-321.4v160.7v160.7h-160.7h-160.7v803.4v803.4h160.7h160.7v160.7v160.7H1706h321.4V-2379.7z"/>
<path d="M2991.5-3022.5v-1124.8h80.3h80.3v-160.7v-160.7h80.3h80.3v-160.7V-4790h642.7h642.7v160.7v160.7h80.3h80.3v160.7v160.7h80.3h80.3v1124.8v1124.8H4759h-160.7v-964.1v-964.1H4518h-80.3v-160.7v-160.7h-80.3h-80.3v-160.7v-160.7h-321.4h-321.4v160.7v160.7h-80.3h-80.3v160.7v160.7h-80.3h-80.3v964.1v964.1h-160.7h-160.7V-3022.5z"/>
<path d="M5241-3343.8V-4790h883.8h883.8v160.7v160.7h-723.1h-723.1v482.1v482.1h642.7h642.7v160.7v160.7h-642.7h-642.7v482.1v482.1h723.1h723.1v160.7v160.7h-883.8H5241V-3343.8z"/>
<path d="M7329.9-3343.8V-4790h160.7h160.7v542.3v542.3l640.7-498.1c498.1-383.6,642.7-506.2,642.7-540.3c2-44.2,10-46.2,162.7-46.2h160.7v118.5v120.5l-564.4,437.9l-564.4,437.9l403.7,6l403.7,4v160.7v160.7h160.7h160.7v562.4v562.4h-160.7h-160.7v160.7v160.7h-803.4h-803.4V-3343.8z M8615.4-2379.7v-160.7h160.7h160.7v-241v-241h-160.7h-160.7v-160.7v-160.7h-482.1h-482.1v562.4v562.4h482.1h482.1V-2379.7z"/>
</g>
</g>
</svg>