<svg xmlns="http://www.w3.org/2000/svg" width="600" height="400" viewBox="0 0 600 400"><rect width="100%" height="100%" fill="#263238"/><path fill="#48af63" d="M139.17 210.195q2.3 0 4.11-.77 1.82-.77 3.05-2.15 1.24-1.39 1.91-3.37.66-1.97.66-4.42v-25.55h7.94v25.55q0 3.81-1.23 7.04-1.22 3.23-3.51 5.57-2.28 2.35-5.56 3.66-3.27 1.31-7.37 1.31-4.13 0-7.41-1.31-3.27-1.31-5.56-3.66-2.29-2.34-3.51-5.57-1.22-3.23-1.22-7.04v-25.55h7.93v25.52q0 2.45.67 4.43.66 1.97 1.91 3.37 1.26 1.4 3.07 2.17 1.81.77 4.12.77Zm32.77-15.02v13.57q1.24 1.51 2.7 2.13 1.46.62 3.17.62 1.65 0 2.98-.62t2.26-1.89q.93-1.27 1.43-3.2.5-1.93.5-4.56 0-2.65-.43-4.5-.43-1.84-1.22-2.99-.8-1.15-1.93-1.68-1.14-.54-2.59-.54-2.27 0-3.86.96-1.59.96-3.01 2.7Zm-.97-7.52.59 2.8q1.86-2.09 4.22-3.39 2.36-1.3 5.54-1.3 2.48 0 4.53 1.03 2.05 1.04 3.54 3 1.49 1.96 2.3 4.84.81 2.87.81 6.59 0 3.39-.91 6.28-.92 2.89-2.61 5.02-1.7 2.12-4.1 3.32-2.41 1.19-5.39 1.19-2.53 0-4.33-.78-1.8-.78-3.22-2.17v12.39h-7.29v-40.15h4.46q1.41 0 1.86 1.33Zm27.28-14.9h7.29v43.84h-7.29v-43.84Zm27.97 13.1q3.36 0 6.12 1.09 2.76 1.09 4.72 3.1t3.03 4.9q1.06 2.89 1.06 6.46 0 3.6-1.06 6.49-1.07 2.89-3.03 4.92-1.96 2.04-4.72 3.13-2.76 1.09-6.12 1.09-3.39 0-6.17-1.09-2.77-1.09-4.73-3.13-1.96-2.03-3.04-4.92t-1.08-6.49q0-3.57 1.08-6.46t3.04-4.9q1.96-2.01 4.73-3.1 2.78-1.09 6.17-1.09Zm0 25.58q3.78 0 5.59-2.54t1.81-7.43q0-4.9-1.81-7.47-1.81-2.56-5.59-2.56-3.83 0-5.68 2.58-1.84 2.58-1.84 7.45 0 4.86 1.84 7.42 1.85 2.55 5.68 2.55Zm36.49-2.66v-5.1q-3.15.15-5.31.54-2.15.4-3.45 1.02-1.3.62-1.86 1.45-.56.82-.56 1.8 0 1.91 1.14 2.74 1.13.83 2.96.83 2.24 0 3.88-.81 1.64-.82 3.2-2.47Zm-15.4-15.9-1.3-2.33q5.23-4.78 12.57-4.78 2.66 0 4.75.87 2.1.87 3.54 2.42 1.45 1.55 2.2 3.7.75 2.16.75 4.72v19.12h-3.3q-1.04 0-1.6-.31t-.88-1.25l-.65-2.19q-1.15 1.04-2.24 1.82-1.09.78-2.27 1.31t-2.53.81q-1.34.28-2.96.28-1.92 0-3.54-.51-1.62-.52-2.8-1.55-1.18-1.04-1.83-2.57-.65-1.53-.65-3.57 0-1.15.38-2.29.39-1.13 1.26-2.16.87-1.04 2.25-1.95 1.39-.92 3.41-1.59 2.02-.68 4.71-1.11 2.68-.43 6.13-.52v-1.77q0-3.03-1.3-4.49-1.29-1.47-3.74-1.47-1.77 0-2.94.42-1.16.41-2.05.93-.88.51-1.61.93-.72.41-1.6.41-.77 0-1.3-.4t-.86-.93Zm48.35 14.75v-13.57q-1.24-1.5-2.7-2.12-1.46-.62-3.14-.62-1.65 0-2.98.62-1.32.62-2.27 1.87-.94 1.25-1.44 3.19-.51 1.93-.51 4.55 0 2.66.43 4.5.43 1.85 1.23 3.01.79 1.17 1.94 1.68 1.15.52 2.57.52 2.27 0 3.86-.94 1.6-.95 3.01-2.69Zm0-34.87h7.29v43.84h-4.45q-1.45 0-1.83-1.33l-.62-2.92q-1.83 2.1-4.21 3.39-2.37 1.3-5.53 1.3-2.48 0-4.54-1.03-2.07-1.03-3.56-2.99-1.49-1.97-2.3-4.86-.81-2.89-.81-6.61 0-3.36.92-6.25.91-2.89 2.62-5.01 1.71-2.13 4.1-3.32 2.39-1.2 5.37-1.2 2.54 0 4.34.8 1.8.8 3.21 2.15v-15.96Zm37.94 1.18v42.66h-7.96v-42.66h7.96Zm15.67 42.66h-7.29v-30.27h4.45q1.42 0 1.86 1.33l.47 2.24q.8-.88 1.67-1.62.87-.74 1.86-1.27.99-.53 2.12-.84 1.14-.31 2.5-.31 2.86 0 4.7 1.55 1.84 1.55 2.76 4.11.71-1.5 1.77-2.58 1.06-1.07 2.33-1.75 1.27-.68 2.7-1 1.43-.33 2.87-.33 2.51 0 4.46.77 1.95.76 3.27 2.24 1.33 1.47 2.02 3.6.7 2.12.7 4.87v19.26h-7.29v-19.26q0-2.89-1.27-4.35-1.27-1.47-3.71-1.47-1.12 0-2.08.39-.96.38-1.69 1.1-.72.73-1.13 1.82-.41 1.09-.41 2.51v19.26h-7.32v-19.26q0-3.04-1.22-4.43-1.23-1.39-3.59-1.39-1.59 0-2.96.79-1.37.78-2.55 2.14v22.15Zm58.11-7.82v-5.1q-3.16.15-5.31.54-2.15.4-3.45 1.02-1.3.62-1.86 1.45-.56.82-.56 1.8 0 1.91 1.14 2.74 1.13.83 2.96.83 2.24 0 3.88-.81 1.64-.82 3.2-2.47Zm-15.4-15.9-1.3-2.33q5.22-4.78 12.57-4.78 2.66 0 4.75.87t3.54 2.42q1.45 1.55 2.2 3.7.75 2.16.75 4.72v19.12h-3.3q-1.04 0-1.6-.31t-.88-1.25l-.65-2.19q-1.15 1.04-2.24 1.82-1.09.78-2.27 1.31t-2.53.81q-1.34.28-2.96.28-1.92 0-3.54-.51-1.62-.52-2.8-1.55-1.18-1.04-1.83-2.57-.65-1.53-.65-3.57 0-1.15.38-2.29.38-1.13 1.25-2.16.88-1.04 2.26-1.95 1.39-.92 3.41-1.59 2.02-.68 4.7-1.11 2.69-.43 6.14-.52v-1.77q0-3.03-1.3-4.49-1.3-1.47-3.74-1.47-1.77 0-2.94.42-1.16.41-2.05.93-.88.51-1.61.93-.72.41-1.61.41-.76 0-1.29-.4t-.86-.93Zm40.42 7.85q1.35 0 2.36-.37 1-.37 1.66-1.02.67-.65 1.01-1.56.33-.92.33-2.01 0-2.24-1.34-3.55-1.34-1.31-4.02-1.31-2.69 0-4.03 1.31-1.34 1.31-1.34 3.55 0 1.06.34 1.98.34.91 1 1.58.66.66 1.68 1.03t2.35.37Zm8.23 17.23q0-.89-.53-1.45-.54-.56-1.45-.87-.91-.31-2.14-.46-1.22-.14-2.59-.22-1.38-.07-2.84-.13t-2.84-.24q-1.21.68-1.97 1.6-.75.91-.75 2.12 0 .8.4 1.49t1.27 1.2q.87.5 2.26.78 1.38.28 3.39.28 2.03 0 3.51-.31 1.47-.31 2.43-.86.96-.54 1.4-1.3.45-.75.45-1.63Zm-1.45-30.59h8.7v2.71q0 1.3-1.56 1.59l-2.71.5q.62 1.57.62 3.43 0 2.24-.9 4.05-.9 1.82-2.5 3.08-1.59 1.27-3.76 1.97-2.17.69-4.67.69-.89 0-1.71-.09-.83-.09-1.63-.23-1.41.85-1.41 1.91 0 .92.84 1.35.84.42 2.22.6 1.39.18 3.16.22 1.77.05 3.63.19 1.86.15 3.63.52 1.77.37 3.15 1.16 1.39.8 2.23 2.17.84 1.37.84 3.53 0 2-.99 3.89-.98 1.89-2.86 3.37-1.87 1.47-4.6 2.37-2.73.9-6.21.9-3.42 0-5.96-.66-2.53-.67-4.22-1.77-1.68-1.11-2.5-2.56-.83-1.44-.83-3 0-2.13 1.28-3.56 1.29-1.43 3.53-2.29-1.21-.62-1.92-1.65-.71-1.03-.71-2.71 0-.68.25-1.4.25-.73.74-1.43.49-.71 1.23-1.35.73-.63 1.74-1.13-2.3-1.24-3.62-3.31-1.31-2.06-1.31-4.83 0-2.25.9-4.06.9-1.81 2.51-3.1 1.6-1.28 3.8-1.96 2.2-.68 4.8-.68 1.94 0 3.65.4t3.13 1.17Zm19.06 10.62h13.75q0-1.42-.4-2.67-.4-1.26-1.2-2.2-.79-.95-2.02-1.49-1.22-.55-2.85-.55-3.15 0-4.97 1.8-1.81 1.8-2.31 5.11Zm18.58 4.39h-18.73q.18 2.33.83 4.03.65 1.69 1.71 2.8 1.06 1.11 2.52 1.65 1.46.55 3.23.55t3.05-.42q1.29-.41 2.25-.91.95-.5 1.68-.91.72-.42 1.4-.42.91 0 1.36.68l2.09 2.66q-1.21 1.41-2.71 2.37-1.51.96-3.15 1.54-1.63.57-3.33.81-1.7.23-3.29.23-3.16 0-5.87-1.04-2.71-1.05-4.72-3.1t-3.16-5.08q-1.15-3.02-1.15-7 0-3.1 1.01-5.83 1-2.73 2.87-4.75 1.88-2.02 4.58-3.2 2.69-1.18 6.09-1.18 2.86 0 5.28.92 2.42.91 4.16 2.67 1.74 1.75 2.73 4.3.98 2.55.98 5.83 0 1.65-.35 2.23-.35.57-1.36.57Z"/></svg>